<svg width="13" height="16" viewBox="0 0 13 16" fill="none" xmlns="http://www.w3.org/2000/svg">
<path d="M8.49382 1.26176C8.44324 1.22391 8.38007 1.21049 8.31987 1.22489C8.25956 1.23929 8.20784 1.28007 8.17717 1.33719C8.17568 1.34 8.17385 1.34257 8.17224 1.34513C8.10175 1.45255 7.96247 1.47867 7.86177 1.4036C7.76232 1.32938 7.62533 1.35502 7.55575 1.4611L7.23555 1.94901C7.16597 2.05509 7.19011 2.20121 7.28945 2.27543C7.3279 2.30411 7.37185 2.31791 7.41533 2.31791C7.48457 2.31791 7.55278 2.283 7.59546 2.21793L7.81118 1.8892C8.01374 1.94938 8.23381 1.90299 8.39975 1.76359L8.72385 2.00565C8.8233 2.07987 8.96017 2.05411 9.02987 1.94816C9.09945 1.84208 9.0753 1.69596 8.97585 1.62174L8.49382 1.26176Z" fill="#1AAAE9"/>
<path d="M10.9237 4.2139L10.708 4.54251C10.6384 4.64859 10.6626 4.79471 10.7619 4.86893C10.8003 4.89761 10.8443 4.91128 10.8878 4.91128C10.957 4.91128 11.0252 4.87649 11.0679 4.81131L11.3882 4.32352C11.4578 4.21744 11.4337 4.07132 11.3343 3.9971C11.2336 3.9219 11.209 3.77334 11.2796 3.6658C11.2813 3.66324 11.2829 3.66067 11.2849 3.65835C11.3247 3.60794 11.3429 3.54214 11.3349 3.47684C11.327 3.41153 11.2937 3.35269 11.2431 3.31497L10.7611 2.95499C10.6616 2.88077 10.5247 2.90652 10.4551 3.0126C10.3854 3.11856 10.4096 3.2648 10.509 3.33902L10.8331 3.58096C10.7669 3.79507 10.8014 4.0314 10.9237 4.2139Z" fill="#1AAAE9"/>
<path d="M9.75758 9.47949C9.86195 9.47949 9.95888 9.52405 10.0305 9.6051C10.1138 9.6991 10.2529 9.70337 10.3411 9.6145C10.4295 9.52563 10.4333 9.37732 10.35 9.2832C10.1968 9.11011 9.98085 9.01074 9.75758 9.01074C9.30828 9.01074 8.94287 9.40063 8.94287 9.87988C8.94287 10.359 9.30828 10.7489 9.75758 10.7489C9.97524 10.7489 10.1799 10.6586 10.3337 10.4944C10.4195 10.4028 10.4195 10.2544 10.3337 10.163C10.248 10.0714 10.1088 10.0714 10.023 10.163C9.95213 10.2385 9.85783 10.2802 9.75758 10.2802C9.55067 10.2802 9.38232 10.1006 9.38232 9.87988C9.38232 9.65906 9.55067 9.47949 9.75758 9.47949Z" fill="#1AAAE9"/>
<path d="M11.7141 8.22877V6.35157C11.7141 5.71424 11.2279 5.19569 10.6304 5.19569H9.46438C9.53259 4.56727 9.34021 4.01454 8.9344 3.71144C8.59062 3.45472 8.14522 3.4087 7.68013 3.5818C7.24056 3.74549 6.83167 4.08949 6.52908 4.55043C6.39507 4.75441 6.28841 4.97071 6.21105 5.19569H4.78054L7.85534 0.51173L12.122 3.69838L11.472 4.68873C11.4024 4.79481 11.4266 4.94093 11.5259 5.01515C11.6254 5.08937 11.7624 5.06361 11.8319 4.95753L12.5406 3.87806C12.6473 3.71583 12.6104 3.4911 12.458 3.37709L8.0238 0.0653189C7.9501 0.0101431 7.8606 -0.0110972 7.77191 0.00550439C7.68322 0.0222281 7.60597 0.0745962 7.55413 0.153332L6.53709 1.70277V0.768444C6.53709 0.57008 6.3858 0.408703 6.19984 0.408703H0.929604C0.743637 0.408703 0.592346 0.57008 0.592346 0.768444V2.05152C0.592346 2.18104 0.690765 2.2859 0.812073 2.2859C0.933495 2.2859 1.0318 2.18104 1.0318 2.05152V0.877575H1.66843V5.19557H1.08364C1.06636 5.19557 1.04908 5.19606 1.0318 5.19691V2.98902C1.0318 2.85963 0.933495 2.75465 0.812073 2.75465C0.690765 2.75465 0.592346 2.85963 0.592346 2.98902V5.32142C0.241127 5.51283 0 5.90272 0 6.35157V13.4078C0 14.0452 0.486145 14.5637 1.08364 14.5637H2.72427C2.84569 14.5637 2.94399 14.4589 2.94399 14.3294C2.94399 14.2 2.84569 14.095 2.72427 14.095H1.08364C0.728416 14.095 0.439453 13.7868 0.439453 13.4078V6.35157C0.439453 6.05128 0.620956 5.79542 0.872955 5.70216C0.878563 5.70045 0.884171 5.6985 0.889549 5.6963C0.95089 5.67555 1.01612 5.66432 1.08376 5.66432H10.6304C10.9856 5.66432 11.2747 5.97267 11.2747 6.35157V8.1963H9.70161C8.83141 8.1963 8.12336 8.95143 8.12336 9.87977C8.12336 10.808 8.83141 11.5631 9.70161 11.5631H11.2747V13.4078C11.2747 13.7868 10.9856 14.095 10.6304 14.095H8.95145C8.83003 14.095 8.73173 14.2 8.73173 14.3294C8.73173 14.4589 8.83003 14.5637 8.95145 14.5637H10.6304C11.2279 14.5637 11.7142 14.0452 11.7142 13.4078V11.5307C12.2113 11.4048 12.5822 10.9273 12.5822 10.3591V9.4004C12.5821 8.83216 12.2112 8.35463 11.7141 8.22877ZM6.889 4.81947C7.39014 4.05604 8.19466 3.73133 8.6824 4.09547C8.96336 4.30531 9.08707 4.71705 9.02126 5.19557H6.68598C6.74171 5.06617 6.80946 4.94032 6.889 4.81947ZM6.09764 2.3722L4.24416 5.19569H3.16143V0.877453H6.09764V2.3722ZM2.10789 0.877453H2.72198V5.19557H2.10789V0.877453ZM12.1426 10.359C12.1426 10.7645 11.8334 11.0944 11.4532 11.0944H9.70161C9.07368 11.0944 8.56281 10.5494 8.56281 9.87965C8.56281 9.20997 9.07368 8.66505 9.70161 8.66505H11.4532C11.8334 8.66505 12.1426 8.99488 12.1426 9.4004V10.359Z" fill="#1AAAE9"/>
<path d="M5.85696 10.3369C4.39326 10.3369 3.20239 11.6072 3.20239 13.1686C3.20239 14.7299 4.39326 16.0001 5.85696 16.0001C7.32078 16.0001 8.51165 14.7299 8.51165 13.1686C8.51165 11.6072 7.32078 10.3369 5.85696 10.3369ZM5.85696 15.5314C4.63554 15.5314 3.64185 14.4714 3.64185 13.1686C3.64185 11.8656 4.63554 10.8057 5.85696 10.8057C7.07851 10.8057 8.0722 11.8656 8.0722 13.1686C8.0722 14.4714 7.07851 15.5314 5.85696 15.5314Z" fill="#1AAAE9"/>
<path d="M6.0443 12.934H5.66951C5.55907 12.934 5.46924 12.8381 5.46924 12.7203C5.46924 12.6025 5.55907 12.5067 5.66951 12.5067H6.38671C6.50802 12.5067 6.60644 12.4017 6.60644 12.2723C6.60644 12.1429 6.50802 12.038 6.38671 12.038H6.11697V11.8398C6.11697 11.7104 6.01855 11.6055 5.89725 11.6055C5.77594 11.6055 5.67752 11.7104 5.67752 11.8398V12.038H5.66951C5.3168 12.038 5.02979 12.3441 5.02979 12.7203C5.02979 13.0966 5.3168 13.4027 5.66951 13.4027H6.0443C6.15474 13.4027 6.24446 13.4984 6.24446 13.6162C6.24446 13.734 6.15474 13.8298 6.0443 13.8298H5.3271C5.20568 13.8298 5.10738 13.9348 5.10738 14.0642C5.10738 14.1936 5.20568 14.2986 5.3271 14.2986H5.67752V14.4967C5.67752 14.6261 5.77594 14.7311 5.89725 14.7311C6.01867 14.7311 6.11697 14.6261 6.11697 14.4967V14.2942C6.43558 14.2555 6.68403 13.9663 6.68403 13.6162C6.68391 13.24 6.39701 12.934 6.0443 12.934Z" fill="#1AAAE9"/>
</svg>
