<svg width="18" height="19" viewBox="0 0 18 19" fill="none" xmlns="http://www.w3.org/2000/svg">
<g clip-path="url(#clip0_76_19596)">
<path d="M13.5 1.55664C15.1545 1.55664 16.5 2.90214 16.5 4.55664V13.5566C16.5 15.2111 15.1545 16.5566 13.5 16.5566H4.5C2.8455 16.5566 1.5 15.2111 1.5 13.5566V4.55664C1.5 2.90214 2.8455 1.55664 4.5 1.55664H13.5ZM13.5 0.0566406H4.5C2.0145 0.0566406 0 2.07114 0 4.55664V13.5566C0 16.0421 2.0145 18.0566 4.5 18.0566H13.5C15.9855 18.0566 18 16.0421 18 13.5566V4.55664C18 2.07114 15.9855 0.0566406 13.5 0.0566406Z" fill="black" fill-opacity="0.4"/>
<path d="M9 13.5566C8.586 13.5566 8.25 13.2214 8.25 12.8066V5.30664C8.25 4.89264 8.586 4.55664 9 4.55664C9.414 4.55664 9.75 4.89264 9.75 5.30664V12.8066C9.75 13.2214 9.414 13.5566 9 13.5566Z" fill="black" fill-opacity="0.4"/>
<path d="M4.5 9.05664C4.5 8.64264 4.83525 8.30664 5.25 8.30664H12.75C13.164 8.30664 13.5 8.64264 13.5 9.05664C13.5 9.47064 13.164 9.80664 12.75 9.80664H5.25C4.83525 9.80664 4.5 9.47064 4.5 9.05664Z" fill="black" fill-opacity="0.4"/>
</g>
<defs>
<clipPath id="clip0_76_19596">
<rect width="18" height="18" fill="white" transform="translate(0 0.0566406)"/>
</clipPath>
</defs>
</svg>
